<svg width="100" height="100" viewBox="0 0 100 100" fill="none" xmlns="http://www.w3.org/2000/svg">
  <circle cx="50" cy="50" r="46" fill="#1E2055" stroke="#6377F5" stroke-width="2"/>
  <path d="M30 30C30 30 40 60 50 70C60 60 70 30 70 30" stroke="#8447FF" stroke-width="3" stroke-linecap="round"/>
  <circle cx="30" cy="30" r="4" fill="#FF3F30"/>
  <circle cx="70" cy="30" r="4" fill="#FF3F30"/>
  <circle cx="50" cy="70" r="4" fill="#22C55E"/>
  <path d="M30 30C30 30 45 40 50 40C55 40 70 30 70 30" stroke="#4ade94" stroke-width="2" stroke-linecap="round" stroke-dasharray="2 2"/>
  <path d="M30 30C30 30 35 45 40 50C45 45 50 30 50 30" stroke="#f59e0b" stroke-width="2" stroke-linecap="round"/>
  <path d="M50 30C50 30 55 45 60 50C65 45 70 30 70 30" stroke="#f59e0b" stroke-width="2" stroke-linecap="round"/>
  <circle cx="40" cy="50" r="3" fill="#FDE68A"/>
  <circle cx="60" cy="50" r="3" fill="#FDE68A"/>
  <path d="M40 50C40 50 45 60 50 70" stroke="#6377F5" stroke-width="2" stroke-linecap="round"/>
  <path d="M60 50C60 50 55 60 50 70" stroke="#6377F5" stroke-width="2" stroke-linecap="round"/>
</svg>